<svg width="280" height="80" viewBox="0 0 280 80" fill="none" xmlns="http://www.w3.org/2000/svg">
<path d="M107.498 15.2865H111.999V55.5398H107.498V51.9894H107.386C105.697 54.1852 102.996 56.3247 98.3791 56.3247C91.1738 56.3247 85.4316 50.6389 85.4316 41.1814C85.4316 31.7239 91.1738 26.0381 98.3791 26.0381C102.996 26.0381 105.697 28.0649 107.386 30.5425H107.498V15.2865ZM107.498 41.1814C107.498 34.4269 104.178 29.9789 98.8299 29.9789C92.9187 29.9789 89.934 35.552 89.934 41.1814C89.934 46.8108 92.9187 52.3839 98.8299 52.3839C104.178 52.3839 107.498 47.9359 107.498 41.1814Z" fill="#352D8E"/>
<path d="M128.807 29.9789C123.346 29.9789 121.543 31.5549 121.263 35.7211H116.759C117.041 30.2044 120.474 26.0381 128.807 26.0381C134.267 26.0381 139.164 28.1776 139.164 35.0951V49.057C139.164 51.3091 139.566 52.5469 142.428 52.2088V55.3626C141.582 55.6758 140.685 55.8281 139.784 55.8115C137.081 55.8115 135.448 55.0809 134.661 51.927H134.541C132.739 54.63 129.531 56.3187 124.803 56.3187C119.005 56.3187 115.344 52.9978 115.344 48.1553C115.344 41.6262 120.184 39.9376 127.621 38.5307C132.464 37.6291 134.665 37.0092 134.665 34.1391C134.661 31.893 133.422 29.9789 128.807 29.9789ZM134.661 44.446V39.6619C133.816 40.5052 131.057 41.2941 128.02 41.914C122.445 43.0955 119.848 44.5023 119.848 47.9359C119.848 50.7536 121.537 52.3839 125.254 52.3839C130.608 52.3839 134.661 49.9627 134.661 44.446Z" fill="#352D8E"/>
<path d="M165.133 26.8271H169.638V53.9598C169.638 61.6079 164.797 65.5004 156.915 65.5004C149.034 65.5004 144.36 61.3342 143.912 56.4434H148.428C148.992 59.3699 151.357 61.5657 156.704 61.5657C162.052 61.5657 165.147 59.2571 165.147 53.9176V49.5702H165.035C163.346 52.0458 160.645 54.0725 155.915 54.0725C148.823 54.0725 143.08 49.5138 143.08 40.0563C143.08 30.5988 148.823 26.0381 155.915 26.0381C160.645 26.0381 163.346 28.1776 165.035 30.3734H165.147L165.133 26.8271ZM165.133 40.0563C165.133 33.2998 161.812 29.9789 156.465 29.9789C150.553 29.9789 147.571 34.4269 147.571 40.0563C147.571 45.6858 150.553 50.1317 156.465 50.1317C161.82 50.1317 165.133 46.8108 165.133 40.0563V40.0563Z" fill="#352D8E"/>
<path d="M197.314 47.6562C197.314 52.8891 192.529 56.3247 185.998 56.3247C177.217 56.3247 173.164 52.1585 172.882 45.9675H177.386C177.666 49.1757 178.795 52.3839 185.998 52.3839C190.895 52.3839 192.809 49.85 192.809 47.9359C192.809 43.7717 189.037 43.5463 184.93 42.5319C180.538 41.4632 174.007 40.956 174.007 34.2015C174.007 29.6972 178.004 26.0381 184.761 26.0381C191.91 26.0381 195.738 30.0916 196.186 35.0448H191.684C191.233 32.851 190.165 29.9789 184.761 29.9789C180.707 29.9789 178.521 31.6112 178.521 33.8634C178.521 37.2406 182.406 37.5224 186.403 38.4804C191.515 39.7182 197.314 40.5615 197.314 47.6562Z" fill="#352D8E"/>
<path d="M212.535 30.7678H206.9V48.0486C206.9 51.3151 208.711 51.8726 212.535 51.5969V55.5397C211.425 55.7721 210.293 55.8854 209.158 55.8778C205.334 55.8778 202.402 54.3583 202.402 48.5034V30.7719H198.175V26.827H202.402V17.2568H206.906V26.827H212.541L212.535 30.7678Z" fill="#352D8E"/>
<path d="M236.47 46.6981H240.974C239.509 52.0458 235.401 56.3247 228.252 56.3247C219.525 56.3247 214.234 50.1881 214.234 41.1814C214.234 31.6112 219.638 26.0381 228.027 26.0381C237.033 26.0381 241.425 32.1748 241.425 42.3629H218.738C218.738 47.5435 221.834 52.3839 228.083 52.3839C233.825 52.3839 235.963 48.6685 236.47 46.6981ZM218.738 38.4321H236.921C236.921 33.8151 233.431 29.9789 228.027 29.9789C222.623 29.9789 218.738 33.803 218.738 38.4321Z" fill="#352D8E"/>
<path d="M260 26.2071V30.7115H259.887C253.648 29.7052 249.305 34.0887 249.305 40.2253V55.5397H244.8V26.827H249.305V32.5128H249.417C250.937 28.7411 253.242 26.0381 257.355 26.0381C258.24 26.0289 259.124 26.0854 260 26.2071V26.2071Z" fill="#352D8E"/>
<path d="M36.9843 63.4334C36.9851 63.7184 37.0447 64.0001 37.1592 64.261C37.2738 64.5219 37.4409 64.7564 37.65 64.9498C37.8592 65.1432 38.106 65.2913 38.375 65.3851C38.644 65.4788 38.9294 65.516 39.2134 65.4944C50.0091 64.7216 60.2053 57.0815 63.4605 45.1484C63.6315 44.4621 64.1465 44.1179 64.8326 44.1179C65.1843 44.1321 65.5162 44.2843 65.7565 44.5416C65.9967 44.7989 66.126 45.1406 66.1161 45.4926C66.1161 48.1533 62.696 55.1071 57.8051 59.1425C57.5559 59.3522 57.3571 59.6155 57.2237 59.9127C57.0903 60.21 57.0256 60.5335 57.0346 60.8593C57.0395 61.1241 57.0967 61.3854 57.2028 61.628C57.3089 61.8707 57.4619 62.0901 57.6529 62.2735C57.8439 62.4569 58.0693 62.6008 58.316 62.697C58.5627 62.7931 58.826 62.8395 59.0907 62.8337C59.5192 62.8337 60.2053 62.5761 61.0623 61.8032C64.4825 58.7117 71.001 50.0412 71.001 40.5112C71.001 26.5393 60.1992 14.4996 45.1243 14.4996C31.6729 14.4996 20.0202 25.4887 20.0202 38.1947C20.0202 46.6076 26.7036 52.9595 35.5277 52.9595C42.2976 52.9595 48.5525 48.1533 50.2666 41.5417C50.4377 40.8554 50.9507 40.5112 51.6367 40.5112C51.9886 40.5254 52.3207 40.6776 52.5613 40.9348C52.8019 41.1921 52.9316 41.5337 52.9223 41.8859C52.9223 44.8908 47.2669 55.3707 35.7852 55.3707C33.043 55.3707 29.6168 54.5979 27.2167 53.2232C26.8953 53.0675 26.5454 52.9798 26.1886 52.9656C25.9154 52.9551 25.643 53.0013 25.3886 53.1012C25.1341 53.2011 24.903 53.3526 24.7099 53.5462C24.5168 53.7397 24.3658 53.9712 24.2664 54.2259C24.167 54.4807 24.1214 54.7533 24.1325 55.0266C24.1436 55.3766 24.2438 55.718 24.4237 56.0185C24.6036 56.3189 24.8572 56.5684 25.1605 56.7434C28.3312 58.5548 32.1015 59.4906 35.9562 59.4906C45.5528 59.4906 54.2924 52.9656 56.8636 43.3511C57.0346 42.6648 57.5496 42.3206 58.2336 42.3206C58.5855 42.3348 58.9177 42.4869 59.1582 42.7442C59.3988 43.0014 59.5285 43.3431 59.5192 43.6953C59.5192 47.6441 52.4938 60.3501 38.9559 61.3805C38.4321 61.4194 37.9411 61.6505 37.5772 62.0294C37.2134 62.4083 37.0022 62.9083 36.9843 63.4334V63.4334Z" fill="#4F43DD"/>
<path d="M50.3993 30.5546C52.2472 30.5408 54.061 31.0517 55.6302 32.0279C55.7888 31.1596 55.8762 30.2798 55.8917 29.3973C55.8917 25.3217 52.7854 21.6707 49.0031 21.6707C46.0618 21.6707 44.2229 24.1081 44.2229 27.119C44.2089 28.7455 44.7802 30.3229 45.8324 31.563C47.258 30.883 48.8201 30.5381 50.3993 30.5546V30.5546Z" fill="white"/>
<path d="M59.2616 45.3195C59.7867 43.5242 60.0181 42.2784 60.0181 41.4693C60.0021 41.1199 59.8524 40.79 59.6 40.548C59.3475 40.306 59.0117 40.1703 58.6621 40.1691C58.3364 40.1752 58.022 40.29 57.7691 40.4953C57.5161 40.7006 57.339 40.9847 57.2659 41.3023C57.123 41.892 56.8172 43.49 56.5154 44.5044C56.6402 44.1247 56.7542 43.7389 56.8575 43.3471C57.0285 42.6588 57.5435 42.3166 58.2275 42.3166C58.5792 42.3303 58.9114 42.482 59.152 42.7389C59.3926 42.9959 59.5224 43.3373 59.5131 43.6893C59.497 44.2426 59.4084 44.7913 59.2496 45.3215L59.2616 45.3195Z" fill="#352D8E"/>
<path d="M66.5446 43.4437C66.5282 43.0948 66.3786 42.7655 66.1267 42.5237C65.8748 42.2818 65.5398 42.1457 65.1907 42.1436C64.8653 42.1501 64.5514 42.2651 64.2988 42.4704C64.0463 42.6756 63.8694 42.9594 63.7964 43.2767C63.6516 43.8805 63.3397 45.5027 63.0339 46.5151H63.048C63.1969 46.0642 63.3357 45.6074 63.4504 45.1424C63.6214 44.4541 64.1364 44.1119 64.8225 44.1119C65.174 44.1256 65.5059 44.2774 65.7463 44.5344C65.9866 44.7914 66.1159 45.1328 66.1061 45.4846C66.0962 45.9119 66.0375 46.3366 65.931 46.7505C66.3575 45.2531 66.5446 44.1703 66.5446 43.4437Z" fill="#352D8E"/>
<path d="M50.3993 30.5546C51.3176 30.5527 52.232 30.6753 53.1174 30.9189C53.5822 30.2847 53.8145 29.5097 53.7752 28.7243C53.7358 27.9389 53.4272 27.191 52.9013 26.6065C52.3754 26.022 51.6642 25.6366 50.8876 25.5151C50.1109 25.3937 49.3161 25.5435 48.637 25.9396L50.0453 28.2582L47.4077 27.117C47.0504 27.6937 46.8713 28.3631 46.8928 29.0412C46.9143 29.7193 47.1354 30.376 47.5284 30.929C48.4644 30.6766 49.43 30.5507 50.3993 30.5546V30.5546Z" fill="#352D8E"/>
<path d="M30.0794 45.4765C31.1906 45.4765 32.0913 44.5754 32.0913 43.4638C32.0913 42.3523 31.1906 41.4512 30.0794 41.4512C28.9683 41.4512 28.0676 42.3523 28.0676 43.4638C28.0676 44.5754 28.9683 45.4765 30.0794 45.4765Z" fill="#352D8E"/>
<path d="M30.0794 37.4259C31.1906 37.4259 32.0913 36.5248 32.0913 35.4132C32.0913 34.3017 31.1906 33.4006 30.0794 33.4006C28.9683 33.4006 28.0676 34.3017 28.0676 35.4132C28.0676 36.5248 28.9683 37.4259 30.0794 37.4259Z" fill="#352D8E"/>
<path d="M26.0558 41.4512C27.1669 41.4512 28.0676 40.5501 28.0676 39.4385C28.0676 38.3269 27.1669 37.4258 26.0558 37.4258C24.9446 37.4258 24.0439 38.3269 24.0439 39.4385C24.0439 40.5501 24.9446 41.4512 26.0558 41.4512Z" fill="#352D8E"/>
<path d="M35.1091 52.9556H35.5115C42.2815 52.9556 48.5364 48.1493 50.2505 41.5377C50.4215 40.8514 50.9345 40.5072 51.6205 40.5072C51.9724 40.5214 52.3046 40.6736 52.5451 40.9308C52.7857 41.1881 52.9154 41.5297 52.9061 41.8819C52.8754 42.5844 52.7166 43.2754 52.4374 43.9207C52.4859 43.8458 52.5283 43.767 52.5641 43.6852C53.0732 42.5212 53.3362 41.2645 53.3367 39.994C53.3367 38.0196 51.9646 36.7315 49.995 36.7315C46.5607 36.7315 45.8726 39.7304 44.4241 42.9365C42.9212 46.2655 40.1609 49.8661 33.1999 49.8661C25.9672 49.8661 18.5354 44.8003 20.3481 34.4994C20.3702 34.3706 20.3883 34.2559 20.4024 34.1492C20.1368 35.48 20.002 36.8336 20 38.1907C20.0201 46.4828 26.4963 52.7623 35.1091 52.9556Z" fill="#352D8E"/>
</svg>
